Metropolis-Bold.ufo
<glyph name="numbersign" format="1">
  <advance width="676"/>
  <unicode hex="0023"/>
  <outline>
    <contour>
      <point x="205" y="0" type="line"/>
      <point x="378" y="687" type="line"/>
      <point x="243" y="687" type="line"/>
      <point x="70" y="0" type="line"/>
    </contour>
    <contour>
      <point x="432" y="0" type="line"/>
      <point x="605" y="687" type="line"/>
      <point x="470" y="687" type="line"/>
      <point x="297" y="0" type="line"/>
    </contour>
    <contour>
      <point x="553" y="147" type="line"/>
      <point x="586" y="281" type="line"/>
      <point x="59" y="281" type="line"/>
      <point x="26" y="147" type="line"/>
    </contour>
    <contour>
      <point x="617" y="404" type="line"/>
      <point x="650" y="538" type="line"/>
      <point x="120" y="538" type="line"/>
      <point x="87" y="404" type="line"/>
    </contour>
  </outline>
</glyph>
<glyph name="percent" format="1">
  <advance width="864"/>
  <unicode hex="0025"/>
  <outline>
    <contour>
      <point x="257" y="0" type="line"/>
      <point x="740" y="687" type="line"/>
      <point x="608" y="687" type="line"/>
      <point x="125" y="0" type="line"/>
    </contour>
    <contour>
      <point x="760" y="-11"/>
      <point x="833" y="67"/>
      <point x="833" y="167" type="curve" smooth="yes"/>
      <point x="833" y="266"/>
      <point x="763" y="346"/>
      <point x="654" y="346" type="curve" smooth="yes"/>
      <point x="547" y="346"/>
      <point x="474" y="268"/>
      <point x="474" y="167" type="curve" smooth="yes"/>
      <point x="474" y="69"/>
      <point x="545" y="-11"/>
      <point x="654" y="-11" type="curve" smooth="yes"/>
    </contour>
    <contour>
      <point x="621" y="97"/>
      <point x="596" y="123"/>
      <point x="596" y="167" type="curve" smooth="yes"/>
      <point x="596" y="214"/>
      <point x="620" y="238"/>
      <point x="654" y="238" type="curve" smooth="yes"/>
      <point x="686" y="238"/>
      <point x="712" y="212"/>
      <point x="712" y="167" type="curve" smooth="yes"/>
      <point x="712" y="122"/>
      <point x="687" y="97"/>
      <point x="654" y="97" type="curve" smooth="yes"/>
    </contour>
    <contour>
      <point x="317" y="338"/>
      <point x="390" y="415"/>
      <point x="390" y="516" type="curve" smooth="yes"/>
      <point x="390" y="614"/>
      <point x="320" y="694"/>
      <point x="210" y="694" type="curve" smooth="yes"/>
      <point x="101" y="694"/>
      <point x="31" y="614"/>
      <point x="31" y="516" type="curve" smooth="yes"/>
      <point x="31" y="415"/>
      <point x="103" y="338"/>
      <point x="210" y="338" type="curve" smooth="yes"/>
    </contour>
    <contour>
      <point x="178" y="445"/>
      <point x="153" y="471"/>
      <point x="153" y="516" type="curve" smooth="yes"/>
      <point x="153" y="561"/>
      <point x="177" y="586"/>
      <point x="210" y="586" type="curve" smooth="yes"/>
      <point x="243" y="586"/>
      <point x="268" y="560"/>
      <point x="268" y="516" type="curve" smooth="yes"/>
      <point x="268" y="470"/>
      <point x="243" y="445"/>
      <point x="210" y="445" type="curve" smooth="yes"/>
    </contour>
  </outline>
</glyph>
<glyph name="asterisk" format="1">
  <advance width="390"/>
  <unicode hex="002A"/>
  <outline>
    <contour>
      <point x="222" y="325"/>
      <point x="243" y="345"/>
      <point x="243" y="368" type="curve" smooth="yes"/>
      <point x="243" y="400"/>
      <point x="222" y="444"/>
      <point x="217" y="476" type="curve"/>
      <point x="242" y="456"/>
      <point x="270" y="416"/>
      <point x="297" y="400" type="curve" smooth="yes"/>
      <point x="317" y="388"/>
      <point x="345" y="396"/>
      <point x="358" y="419" type="curve" smooth="yes"/>
      <point x="371" y="442"/>
      <point x="364" y="470"/>
      <point x="344" y="481" type="curve" smooth="yes"/>
      <point x="317" y="497"/>
      <point x="269" y="502"/>
      <point x="238" y="514" type="curve"/>
      <point x="268" y="526"/>
      <point x="317" y="530"/>
      <point x="344" y="546" type="curve" smooth="yes"/>
      <point x="364" y="557"/>
      <point x="371" y="585"/>
      <point x="358" y="608" type="curve" smooth="yes"/>
      <point x="345" y="631"/>
      <point x="317" y="639"/>
      <point x="297" y="627" type="curve" smooth="yes"/>
      <point x="270" y="611"/>
      <point x="242" y="572"/>
      <point x="216" y="552" type="curve"/>
      <point x="221" y="584"/>
      <point x="242" y="628"/>
      <point x="242" y="660" type="curve" smooth="yes"/>
      <point x="242" y="683"/>
      <point x="221" y="703"/>
      <point x="195" y="703" type="curve" smooth="yes"/>
      <point x="169" y="703"/>
      <point x="148" y="683"/>
      <point x="148" y="660" type="curve" smooth="yes"/>
      <point x="148" y="628"/>
      <point x="168" y="584"/>
      <point x="173" y="552" type="curve"/>
      <point x="148" y="572"/>
      <point x="120" y="612"/>
      <point x="93" y="628" type="curve" smooth="yes"/>
      <point x="73" y="640"/>
      <point x="45" y="632"/>
      <point x="32" y="609" type="curve" smooth="yes"/>
      <point x="19" y="586"/>
      <point x="26" y="558"/>
      <point x="46" y="547" type="curve" smooth="yes"/>
      <point x="73" y="531"/>
      <point x="120" y="526"/>
      <point x="151" y="514" type="curve"/>
      <point x="121" y="502"/>
      <point x="73" y="498"/>
      <point x="46" y="482" type="curve" smooth="yes"/>
      <point x="26" y="471"/>
      <point x="19" y="443"/>
      <point x="32" y="420" type="curve" smooth="yes"/>
      <point x="45" y="397"/>
      <point x="73" y="389"/>
      <point x="93" y="401" type="curve" smooth="yes"/>
      <point x="120" y="417"/>
      <point x="147" y="456"/>
      <point x="173" y="476" type="curve"/>
      <point x="168" y="444"/>
      <point x="149" y="400"/>
      <point x="149" y="368" type="curve" smooth="yes"/>
      <point x="149" y="345"/>
      <point x="170" y="325"/>
      <point x="196" y="325" type="curve" smooth="yes"/>
    </contour>
  </outline>
</glyph>
<glyph name="period" format="1">
  <advance width="314"/>
  <unicode hex="002E"/>
  <outline>
    <contour>
      <point x="222" y="-12"/>
      <point x="273" y="41"/>
      <point x="273" y="106" type="curve" smooth="yes"/>
      <point x="273" y="166"/>
      <point x="222" y="219"/>
      <point x="160" y="219" type="curve" smooth="yes"/>
      <point x="93" y="219"/>
      <point x="42" y="166"/>
      <point x="42" y="106" type="curve" smooth="yes"/>
      <point x="42" y="41"/>
      <point x="93" y="-12"/>
      <point x="160" y="-12" type="curve" smooth="yes"/>
    </contour>
  </outline>
</glyph>
<glyph name="zero" format="1">
  <advance width="718"/>
  <unicode hex="0030"/>
  <outline>
    <contour>
      <point x="549" y="-12"/>
      <point x="683" y="135"/>
      <point x="683" y="344" type="curve" smooth="yes"/>
      <point x="683" y="552"/>
      <point x="549" y="699"/>
      <point x="359" y="699" type="curve" smooth="yes"/>
      <point x="169" y="699"/>
      <point x="35" y="552"/>
      <point x="35" y="344" type="curve" smooth="yes"/>
      <point x="35" y="135"/>
      <point x="169" y="-12"/>
      <point x="359" y="-12" type="curve" smooth="yes"/>
    </contour>
    <contour>
      <point x="286" y="164"/>
      <point x="235" y="239"/>
      <point x="235" y="344" type="curve" smooth="yes"/>
      <point x="235" y="449"/>
      <point x="286" y="523"/>
      <point x="359" y="523" type="curve" smooth="yes"/>
      <point x="432" y="523"/>
      <point x="483" y="449"/>
      <point x="483" y="344" type="curve" smooth="yes"/>
      <point x="483" y="239"/>
      <point x="432" y="164"/>
      <point x="359" y="164" type="curve" smooth="yes"/>
    </contour>
  </outline>
</glyph>
<glyph name="one" format="1">
  <advance width="456"/>
  <unicode hex="0031"/>
  <outline>
    <contour>
      <point x="391" y="0" type="line"/>
      <point x="391" y="687" type="line"/>
      <point x="236" y="687" type="line"/>
      <point x="6" y="533" type="line"/>
      <point x="82" y="399" type="line"/>
      <point x="197" y="469" type="line"/>
      <point x="197" y="0" type="line"/>
    </contour>
  </outline>
</glyph>
<glyph name="two" format="1">
  <advance width="625"/>
  <unicode hex="0032"/>
  <outline>
    <contour>
      <point x="590" y="0" type="line"/>
      <point x="590" y="173" type="line"/>
      <point x="337" y="173" type="line"/>
      <point x="426" y="230" type="line" smooth="yes"/>
      <point x="548" y="308"/>
      <point x="584" y="378"/>
      <point x="584" y="468" type="curve" smooth="yes"/>
      <point x="584" y="601"/>
      <point x="474" y="699"/>
      <point x="311" y="699" type="curve" smooth="yes"/>
      <point x="197" y="699"/>
      <point x="104" y="653"/>
      <point x="28" y="563" type="curve"/>
      <point x="148" y="442" type="line"/>
      <point x="201" y="495"/>
      <point x="247" y="523"/>
      <point x="306" y="523" type="curve" smooth="yes"/>
      <point x="351" y="523"/>
      <point x="384" y="498"/>
      <point x="384" y="460" type="curve" smooth="yes"/>
      <point x="384" y="424"/>
      <point x="367" y="393"/>
      <point x="295" y="341" type="curve" smooth="yes"/>
      <point x="40" y="157" type="line"/>
      <point x="40" y="0" type="line"/>
    </contour>
  </outline>
</glyph>
<glyph name="four" format="1">
  <advance width="665"/>
  <unicode hex="0034"/>
  <outline>
    <contour>
      <point x="556" y="0" type="line"/>
      <point x="556" y="122" type="line"/>
      <point x="639" y="122" type="line"/>
      <point x="639" y="282" type="line"/>
      <point x="556" y="282" type="line"/>
      <point x="556" y="686" type="line"/>
      <point x="318" y="686" type="line"/>
      <point x="15" y="268" type="line"/>
      <point x="31" y="122" type="line"/>
      <point x="362" y="122" type="line"/>
      <point x="362" y="0" type="line"/>
    </contour>
    <contour>
      <point x="362" y="488" type="line"/>
      <point x="362" y="282" type="line"/>
      <point x="214" y="282" type="line"/>
    </contour>
  </outline>
</glyph>
<glyph name="colon" format="1">
  <advance width="314"/>
  <unicode hex="003A"/>
  <outline>
    <contour>
      <point x="222" y="313"/>
      <point x="273" y="366"/>
      <point x="273" y="431" type="curve" smooth="yes"/>
      <point x="273" y="491"/>
      <point x="222" y="544"/>
      <point x="160" y="544" type="curve" smooth="yes"/>
      <point x="93" y="544"/>
      <point x="42" y="491"/>
      <point x="42" y="431" type="curve" smooth="yes"/>
      <point x="42" y="366"/>
      <point x="93" y="313"/>
      <point x="160" y="313" type="curve" smooth="yes"/>
    </contour>
    <contour>
      <point x="222" y="-12"/>
      <point x="273" y="41"/>
      <point x="273" y="106" type="curve" smooth="yes"/>
      <point x="273" y="166"/>
      <point x="222" y="219"/>
      <point x="160" y="219" type="curve" smooth="yes"/>
      <point x="93" y="219"/>
      <point x="42" y="166"/>
      <point x="42" y="106" type="curve" smooth="yes"/>
      <point x="42" y="41"/>
      <point x="93" y="-12"/>
      <point x="160" y="-12" type="curve" smooth="yes"/>
    </contour>
  </outline>
</glyph>
<glyph name="less" format="1">
  <advance width="597"/>
  <unicode hex="003C"/>
  <outline>
    <contour>
      <point x="530" y="229" type="line"/>
      <point x="199" y="343" type="line"/>
      <point x="530" y="459" type="line"/>
      <point x="530" y="609" type="line"/>
      <point x="55" y="420" type="line"/>
      <point x="55" y="267" type="line"/>
      <point x="530" y="78" type="line"/>
    </contour>
  </outline>
</glyph>
<glyph name="A" format="1">
  <advance width="749"/>
  <unicode hex="0041"/>
  <outline>
    <contour>
      <point x="591" y="92" type="line"/>
      <point x="591" y="235" type="line"/>
      <point x="172" y="235" type="line"/>
      <point x="172" y="92" type="line"/>
    </contour>
    <component base="V" xOffset="749" yOffset="687" xScale="-1" yScale="-1"/>
    <contour>
      <point x="375" y="687" type="move" name="top"/>
    </contour>
    <contour>
      <point x="748" y="0" type="move" name="bottom"/>
    </contour>
  </outline>
</glyph>
<glyph name="F" format="1">
  <advance width="651"/>
  <unicode hex="0046"/>
  <outline>
    <contour>
      <point x="254" y="0" type="line"/>
      <point x="254" y="313" type="line"/>
      <point x="159" y="244" type="line"/>
      <point x="581" y="244" type="line"/>
      <point x="581" y="417" type="line"/>
      <point x="159" y="417" type="line"/>
      <point x="254" y="347" type="line"/>
      <point x="254" y="633" type="line"/>
      <point x="159" y="514" type="line"/>
      <point x="613" y="514" type="line"/>
      <point x="613" y="687" type="line"/>
      <point x="60" y="687" type="line"/>
      <point x="60" y="0" type="line"/>
    </contour>
  </outline>
</glyph>
<glyph name="G" format="1">
  <advance width="741"/>
  <unicode hex="0047"/>
  <outline>
    <contour>
      <point x="521" y="-12"/>
      <point x="626" y="33"/>
      <point x="697" y="110" type="curve"/>
      <point x="555" y="234" type="line"/>
      <point x="520" y="190"/>
      <point x="468" y="164"/>
      <point x="413" y="164" type="curve" smooth="yes"/>
      <point x="316" y="164"/>
      <point x="234" y="246"/>
      <point x="234" y="344" type="curve" smooth="yes"/>
      <point x="234" y="441"/>
      <point x="316" y="523"/>
      <point x="413" y="523" type="curve" smooth="yes"/>
      <point x="468" y="523"/>
      <point x="520" y="497"/>
      <point x="554" y="453" type="curve"/>
      <point x="697" y="578" type="line"/>
      <point x="626" y="654"/>
      <point x="521" y="699"/>
      <point x="413" y="699" type="curve" smooth="yes"/>
      <point x="207" y="699"/>
      <point x="34" y="537"/>
      <point x="34" y="344" type="curve" smooth="yes"/>
      <point x="34" y="151"/>
      <point x="207" y="-12"/>
      <point x="413" y="-12" type="curve" smooth="yes"/>
    </contour>
    <contour>
      <point x="697" y="110" type="line"/>
      <point x="697" y="402" type="line"/>
      <point x="375" y="402" type="line"/>
      <point x="375" y="259" type="line"/>
      <point x="538" y="259" type="line"/>
      <point x="509" y="288" type="line"/>
      <point x="509" y="110" type="line"/>
    </contour>
    <contour>
      <point x="413" y="687" type="move" name="top"/>
    </contour>
    <contour>
      <point x="412" y="0" type="move" name="bottom"/>
    </contour>
  </outline>
</glyph>
<glyph name="H" format="1">
  <advance width="759"/>
  <unicode hex="0048"/>
  <outline>
    <contour>
      <point x="254" y="0" type="line"/>
      <point x="254" y="315" type="line"/>
      <point x="207" y="264" type="line"/>
      <point x="551" y="264" type="line"/>
      <point x="505" y="315" type="line"/>
      <point x="505" y="0" type="line"/>
      <point x="699" y="0" type="line"/>
      <point x="699" y="687" type="line"/>
      <point x="505" y="687" type="line"/>
      <point x="505" y="385" type="line"/>
      <point x="553" y="437" type="line"/>
      <point x="207" y="437" type="line"/>
      <point x="254" y="385" type="line"/>
      <point x="254" y="687" type="line"/>
      <point x="60" y="687" type="line"/>
      <point x="60" y="0" type="line"/>
    </contour>
  </outline>
</glyph>
<glyph name="J" format="1">
  <advance width="548"/>
  <unicode hex="004A"/>
  <outline>
    <contour>
      <point x="392" y="-12"/>
      <point x="495" y="86"/>
      <point x="495" y="224" type="curve" smooth="yes"/>
      <point x="495" y="687" type="line"/>
      <point x="301" y="687" type="line"/>
      <point x="301" y="244" type="line" smooth="yes"/>
      <point x="301" y="197"/>
      <point x="267" y="164"/>
      <point x="220" y="164" type="curve" smooth="yes"/>
      <point x="185" y="164"/>
      <point x="147" y="189"/>
      <point x="128" y="224" type="curve"/>
      <point x="3" y="102" type="line"/>
      <point x="52" y="35"/>
      <point x="153" y="-12"/>
      <point x="246" y="-12" type="curve" smooth="yes"/>
    </contour>
  </outline>
</glyph>
<glyph name="S" format="1">
  <advance width="646"/>
  <unicode hex="0053"/>
  <outline>
    <contour>
      <point x="508" y="-12"/>
      <point x="619" y="73"/>
      <point x="619" y="218" type="curve" smooth="yes"/>
      <point x="619" y="349"/>
      <point x="519" y="392"/>
      <point x="359" y="426" type="curve" smooth="yes"/>
      <point x="261" y="447"/>
      <point x="237" y="458"/>
      <point x="237" y="493" type="curve" smooth="yes"/>
      <point x="237" y="519"/>
      <point x="260" y="538"/>
      <point x="307" y="538" type="curve" smooth="yes"/>
      <point x="369" y="538"/>
      <point x="439" y="515"/>
      <point x="503" y="469" type="curve"/>
      <point x="600" y="606" type="line"/>
      <point x="524" y="667"/>
      <point x="431" y="699"/>
      <point x="312" y="699" type="curve" smooth="yes"/>
      <point x="149" y="699"/>
      <point x="41" y="610"/>
      <point x="41" y="473" type="curve" smooth="yes"/>
      <point x="41" y="330"/>
      <point x="156" y="291"/>
      <point x="305" y="257" type="curve" smooth="yes"/>
      <point x="400" y="235"/>
      <point x="424" y="230"/>
      <point x="424" y="197" type="curve" smooth="yes"/>
      <point x="424" y="167"/>
      <point x="396" y="149"/>
      <point x="343" y="149" type="curve" smooth="yes"/>
      <point x="262" y="149"/>
      <point x="186" y="178"/>
      <point x="116" y="233" type="curve"/>
      <point x="8" y="104" type="line"/>
      <point x="95" y="27"/>
      <point x="212" y="-12"/>
      <point x="336" y="-12" type="curve" smooth="yes"/>
    </contour>
    <contour>
      <point x="312" y="687" type="move" name="top"/>
    </contour>
    <contour>
      <point x="323" y="0" type="move" name="bottom"/>
    </contour>
  </outline>
</glyph>
<glyph name="T" format="1">
  <advance width="645"/>
  <unicode hex="0054"/>
  <outline>
    <contour>
      <point x="420" y="0" type="line"/>
      <point x="420" y="514" type="line"/>
      <point x="623" y="514" type="line"/>
      <point x="623" y="687" type="line"/>
      <point x="23" y="687" type="line"/>
      <point x="23" y="514" type="line"/>
      <point x="226" y="514" type="line"/>
      <point x="226" y="0" type="line"/>
    </contour>
    <contour>
      <point x="323" y="687" type="move" name="top"/>
    </contour>
    <contour>
      <point x="320" y="0" type="move" name="bottom"/>
    </contour>
  </outline>
</glyph>
<glyph name="V" format="1">
  <advance width="749"/>
  <unicode hex="0056"/>
  <outline>
    <contour>
      <point x="484" y="0" type="line"/>
      <point x="748" y="687" type="line"/>
      <point x="529" y="687" type="line"/>
      <point x="265" y="0" type="line"/>
    </contour>
    <contour>
      <point x="484" y="0" type="line"/>
      <point x="220" y="687" type="line"/>
      <point x="1" y="687" type="line"/>
      <point x="265" y="0" type="line"/>
    </contour>
  </outline>
</glyph>
<glyph name="bracketright" format="1">
  <advance width="398"/>
  <unicode hex="005D"/>
  <outline>
    <contour>
      <point x="334" y="-160" type="line"/>
      <point x="334" y="689" type="line"/>
      <point x="39" y="689" type="line"/>
      <point x="39" y="568" type="line"/>
      <point x="187" y="568" type="line"/>
      <point x="187" y="-39" type="line"/>
      <point x="39" y="-39" type="line"/>
      <point x="39" y="-160" type="line"/>
    </contour>
  </outline>
</glyph>
<glyph name="e" format="1">
  <advance width="590"/>
  <unicode hex="0065"/>
  <outline>
    <contour>
      <point x="387" y="-12"/>
      <point x="475" y="21"/>
      <point x="521" y="68" type="curve"/>
      <point x="415" y="175" type="line"/>
      <point x="381" y="148"/>
      <point x="339" y="132"/>
      <point x="300" y="132" type="curve" smooth="yes"/>
      <point x="237" y="132"/>
      <point x="192" y="185"/>
      <point x="192" y="259" type="curve" smooth="yes"/>
      <point x="192" y="333"/>
      <point x="237" y="385"/>
      <point x="300" y="385" type="curve" smooth="yes"/>
      <point x="356" y="385"/>
      <point x="396" y="335"/>
      <point x="396" y="265" type="curve"/>
      <point x="438" y="314" type="line"/>
      <point x="81" y="314" type="line"/>
      <point x="81" y="213" type="line"/>
      <point x="564" y="213" type="line"/>
      <point x="564" y="412"/>
      <point x="466" y="529"/>
      <point x="300" y="529" type="curve" smooth="yes"/>
      <point x="140" y="529"/>
      <point x="27" y="418"/>
      <point x="27" y="260" type="curve" smooth="yes"/>
      <point x="27" y="101"/>
      <point x="143" y="-12"/>
      <point x="308" y="-12" type="curve" smooth="yes"/>
    </contour>
    <contour>
      <point x="300" y="517" type="move" name="top"/>
    </contour>
    <contour>
      <point x="308" y="-12" type="move" name="bottom"/>
    </contour>
  </outline>
</glyph>
<glyph name="j" format="1">
  <advance width="304"/>
  <unicode hex="006A"/>
  <outline>
    <contour>
      <point x="207" y="572"/>
      <point x="251" y="618"/>
      <point x="251" y="672" type="curve" smooth="yes"/>
      <point x="251" y="724"/>
      <point x="207" y="770"/>
      <point x="153" y="770" type="curve" smooth="yes"/>
      <point x="97" y="770"/>
      <point x="53" y="724"/>
      <point x="53" y="672" type="curve" smooth="yes"/>
      <point x="53" y="618"/>
      <point x="97" y="572"/>
      <point x="153" y="572" type="curve" smooth="yes"/>
    </contour>
    <component base="jdotless"/>
  </outline>
</glyph>
<glyph name="n" format="1">
  <advance width="628"/>
  <unicode hex="006E"/>
  <outline>
    <component base="lowercase_nh_shoulder" xOffset="31"/>
    <component base="idotless" xOffset="-4"/>
    <contour>
      <point x="323" y="517" type="move" name="top"/>
    </contour>
    <contour>
      <point x="323" y="0" type="move" name="bottom"/>
    </contour>
  </outline>
</glyph>
<glyph name="r" format="1">
  <advance width="421"/>
  <unicode hex="0072"/>
  <outline>
    <contour>
      <point x="244" y="313"/>
      <point x="304" y="369"/>
      <point x="406" y="369" type="curve"/>
      <point x="406" y="529" type="line"/>
      <point x="292" y="529"/>
      <point x="211" y="425"/>
      <point x="211" y="279" type="curve"/>
      <point x="244" y="219" type="line"/>
    </contour>
    <component base="idotless" xOffset="-4"/>
    <contour>
      <point x="228" y="517" type="move" name="top"/>
    </contour>
  </outline>
</glyph>
<glyph name="t" format="1">
  <advance width="416"/>
  <unicode hex="0074"/>
  <outline>
    <contour>
      <point x="304" y="-12"/>
      <point x="359" y="10"/>
      <point x="391" y="41" type="curve"/>
      <point x="358" y="163" type="line"/>
      <point x="348" y="154"/>
      <point x="329" y="148"/>
      <point x="311" y="148" type="curve" smooth="yes"/>
      <point x="285" y="148"/>
      <point x="267" y="170"/>
      <point x="267" y="201" type="curve" smooth="yes"/>
      <point x="267" y="659" type="line"/>
      <point x="83" y="659" type="line"/>
      <point x="83" y="163" type="line" smooth="yes"/>
      <point x="83" y="60"/>
      <point x="155" y="-12"/>
      <point x="258" y="-12" type="curve" smooth="yes"/>
    </contour>
    <contour>
      <point x="369" y="365" type="line"/>
      <point x="369" y="517" type="line"/>
      <point x="18" y="517" type="line"/>
      <point x="18" y="365" type="line"/>
    </contour>
    <contour>
      <point x="260" y="0" type="move" name="bottom"/>
    </contour>
  </outline>
</glyph>
<glyph name="w" format="1">
  <advance width="847"/>
  <unicode hex="0077"/>
  <outline>
    <contour>
      <point x="356" y="0" type="line"/>
      <point x="424" y="266" type="line"/>
      <point x="494" y="0" type="line"/>
      <point x="665" y="0" type="line"/>
      <point x="841" y="517" type="line"/>
      <point x="656" y="517" type="line"/>
      <point x="580" y="259" type="line"/>
      <point x="503" y="517" type="line"/>
      <point x="345" y="517" type="line"/>
      <point x="269" y="259" type="line"/>
      <point x="192" y="517" type="line"/>
      <point x="7" y="517" type="line"/>
      <point x="185" y="0" type="line"/>
    </contour>
    <contour>
      <point x="424" y="517" type="move" name="top"/>
    </contour>
  </outline>
</glyph>
<glyph name="y" format="1">
  <advance width="607"/>
  <unicode hex="0079"/>
  <outline>
    <contour>
      <point x="289" y="-180"/>
      <point x="365" y="-115"/>
      <point x="407" y="-4" type="curve" smooth="yes"/>
      <point x="602" y="517" type="line"/>
      <point x="408" y="517" type="line"/>
      <point x="308" y="198" type="line"/>
      <point x="202" y="517" type="line"/>
      <point x="5" y="517" type="line"/>
      <point x="214" y="-7" type="line"/>
      <point x="204" y="-27" type="line"/>
      <point x="198" y="-36"/>
      <point x="176" y="-43"/>
      <point x="152" y="-43" type="curve" smooth="yes"/>
      <point x="138" y="-43"/>
      <point x="108" y="-31"/>
      <point x="79" y="-14" type="curve"/>
      <point x="40" y="-138" type="line"/>
      <point x="82" y="-163"/>
      <point x="149" y="-180"/>
      <point x="201" y="-180" type="curve" smooth="yes"/>
    </contour>
    <contour>
      <point x="308" y="517" type="move" name="top"/>
    </contour>
  </outline>
</glyph>
<glyph name="yen" format="1">
  <advance width="709"/>
  <unicode hex="00A5"/>
  <outline>
    <contour>
      <point x="603" y="90" type="line"/>
      <point x="603" y="177" type="line"/>
      <point x="107" y="177" type="line"/>
      <point x="107" y="90" type="line"/>
    </contour>
    <contour>
      <point x="603" y="230" type="line"/>
      <point x="603" y="317" type="line"/>
      <point x="107" y="317" type="line"/>
      <point x="107" y="230" type="line"/>
    </contour>
    <component base="Y"/>
  </outline>
</glyph>
<glyph name="AE" format="1">
  <advance width="1113"/>
  <unicode hex="00C6"/>
  <outline>
    <contour>
      <point x="225" y="0" type="line"/>
      <point x="622" y="687" type="line"/>
      <point x="398" y="687" type="line"/>
      <point x="1" y="0" type="line"/>
    </contour>
    <contour>
      <point x="653" y="92" type="line"/>
      <point x="653" y="235" type="line"/>
      <point x="234" y="235" type="line"/>
      <point x="234" y="92" type="line"/>
    </contour>
    <component base="E" xOffset="462"/>
  </outline>
</glyph>
<glyph name="eth" format="1">
  <advance width="635"/>
  <unicode hex="00F0"/>
  <outline>
    <contour>
      <point x="261" y="149"/>
      <point x="219" y="188"/>
      <point x="219" y="244" type="curve" smooth="yes"/>
      <point x="219" y="299"/>
      <point x="260" y="338"/>
      <point x="319" y="338" type="curve" smooth="yes"/>
      <point x="380" y="338"/>
      <point x="420" y="297"/>
      <point x="420" y="243" type="curve" smooth="yes"/>
      <point x="420" y="188"/>
      <point x="379" y="149"/>
      <point x="320" y="149" type="curve" smooth="yes"/>
    </contour>
    <contour>
      <point x="355" y="513"/>
      <point x="398" y="425" type="curve"/>
      <point x="362" y="466"/>
      <point x="318" y="492"/>
      <point x="255" y="492" type="curve" smooth="yes"/>
      <point x="126" y="492"/>
      <point x="35" y="392"/>
      <point x="35" y="251" type="curve" smooth="yes"/>
      <point x="35" y="97"/>
      <point x="153" y="-12"/>
      <point x="319" y="-12" type="curve" smooth="yes"/>
      <point x="486" y="-12"/>
      <point x="604" y="112"/>
      <point x="604" y="288" type="curve" smooth="yes"/>
      <point x="604" y="460"/>
      <point x="507" y="573"/>
      <point x="301" y="732" type="curve"/>
      <point x="133" y="660" type="line"/>
      <point x="252" y="584"/>
    </contour>
    <contour>
      <point x="479" y="638" type="line"/>
      <point x="440" y="726" type="line"/>
      <point x="155" y="599" type="line"/>
      <point x="194" y="511" type="line"/>
    </contour>
  </outline>
</glyph>
<glyph name="divide" format="1">
  <advance width="609"/>
  <unicode hex="00F7"/>
  <outline>
    <contour>
      <point x="554" y="260" type="line"/>
      <point x="554" y="409" type="line"/>
      <point x="55" y="409" type="line"/>
      <point x="55" y="260" type="line"/>
    </contour>
    <contour>
      <point x="360" y="30"/>
      <point x="403" y="75"/>
      <point x="403" y="130" type="curve" smooth="yes"/>
      <point x="403" y="181"/>
      <point x="360" y="226"/>
      <point x="307" y="226" type="curve" smooth="yes"/>
      <point x="251" y="226"/>
      <point x="207" y="181"/>
      <point x="207" y="130" type="curve" smooth="yes"/>
      <point x="207" y="75"/>
      <point x="251" y="30"/>
      <point x="307" y="30" type="curve" smooth="yes"/>
    </contour>
    <contour>
      <point x="360" y="442"/>
      <point x="403" y="487"/>
      <point x="403" y="542" type="curve" smooth="yes"/>
      <point x="403" y="593"/>
      <point x="360" y="638"/>
      <point x="307" y="638" type="curve" smooth="yes"/>
      <point x="251" y="638"/>
      <point x="207" y="593"/>
      <point x="207" y="542" type="curve" smooth="yes"/>
      <point x="207" y="487"/>
      <point x="251" y="442"/>
      <point x="307" y="442" type="curve" smooth="yes"/>
    </contour>
  </outline>
</glyph>
<glyph name="dcaron" format="1">
  <advance width="674"/>
  <unicode hex="010F"/>
  <outline>
    <component base="d"/>
    <component base="commaaccentcomb" xOffset="613" yOffset="722"/>
    <contour>
      <point x="182" y="704" type="move" name="top"/>
    </contour>
    <contour>
      <point x="182" y="517" type="move" name="_top"/>
    </contour>
  </outline>
</glyph>
<glyph name="circumflex" format="1">
  <advance width="498"/>
  <unicode hex="02C6"/>
  <outline>
    <contour>
      <point x="175" y="574" type="line"/>
      <point x="248" y="641" type="line"/>
      <point x="322" y="574" type="line"/>
      <point x="435" y="574" type="line"/>
      <point x="326" y="728" type="line"/>
      <point x="171" y="728" type="line"/>
      <point x="63" y="574" type="line"/>
    </contour>
    <contour>
      <point x="248" y="704" type="move" name="top"/>
    </contour>
    <contour>
      <point x="248" y="517" type="move" name="_top"/>
    </contour>
  </outline>
</glyph>
<glyph name="dotaccent" format="1">
  <advance width="299"/>
  <unicode hex="02D9"/>
  <outline>
    <contour>
      <point x="197" y="575"/>
      <point x="236" y="614"/>
      <point x="236" y="662" type="curve" smooth="yes"/>
      <point x="236" y="708"/>
      <point x="197" y="748"/>
      <point x="150" y="748" type="curve" smooth="yes"/>
      <point x="100" y="748"/>
      <point x="63" y="708"/>
      <point x="63" y="662" type="curve" smooth="yes"/>
      <point x="63" y="614"/>
      <point x="100" y="575"/>
      <point x="150" y="575" type="curve" smooth="yes"/>
    </contour>
    <contour>
      <point x="150" y="704" type="move" name="top"/>
    </contour>
    <contour>
      <point x="150" y="0" type="move" name="bottom"/>
    </contour>
    <contour>
      <point x="150" y="517" type="move" name="_top"/>
    </contour>
  </outline>
</glyph>
<glyph name="emdash" format="1">
  <advance width="872"/>
  <unicode hex="2014"/>
  <outline>
    <contour>
      <point x="834" y="200" type="line"/>
      <point x="834" y="356" type="line"/>
      <point x="38" y="356" type="line"/>
      <point x="38" y="200" type="line"/>
    </contour>
  </outline>
</glyph>
<glyph name="guilsinglright" format="1">
  <advance width="369"/>
  <unicode hex="203A"/>
  <outline>
    <contour>
      <point x="339" y="256" type="line"/>
      <point x="172" y="462" type="line"/>
      <point x="30" y="432" type="line"/>
      <point x="169" y="256" type="line"/>
      <point x="30" y="79" type="line"/>
      <point x="172" y="48" type="line"/>
    </contour>
  </outline>
</glyph>
<glyph name="ascender" format="1">
  <advance width="674"/>
  <outline>
    <contour>
      <point x="244" y="0" type="line"/>
      <point x="244" y="699" type="line"/>
      <point x="51" y="699" type="line"/>
      <point x="51" y="0" type="line"/>
    </contour>
  </outline>
</glyph>
<glyph name="lowercase_nh_shoulder" format="1">
  <advance width="600"/>
  <outline>
    <contour>
      <point x="549" y="0" type="line"/>
      <point x="549" y="329" type="line" smooth="yes"/>
      <point x="549" y="446"/>
      <point x="470" y="529"/>
      <point x="359" y="529" type="curve" smooth="yes"/>
      <point x="260" y="529"/>
      <point x="186" y="467"/>
      <point x="181" y="379" type="curve"/>
      <point x="213" y="290" type="line"/>
      <point x="213" y="336"/>
      <point x="244" y="369"/>
      <point x="287" y="369" type="curve" smooth="yes"/>
      <point x="333" y="369"/>
      <point x="365" y="334"/>
      <point x="365" y="284" type="curve" smooth="yes"/>
      <point x="365" y="0" type="line"/>
    </contour>
  </outline>
</glyph>
